<?xml version="1.0" ?><!DOCTYPE svg  PUBLIC '-//W3C//DTD SVG 1.1//EN'  'http://www.w3.org/Graphics/SVG/1.1/DTD/svg11.dtd'><svg enable-background="new 0 0 24 24" height="24px" id="Layer_1" version="1.1" viewBox="0 0 24 24" width="24px" xml:space="preserve" xmlns="http://www.w3.org/2000/svg" xmlns:xlink="http://www.w3.org/1999/xlink"><path d="M14.8,12.4l1.9-1.9c1.8,0.7,3.9,0.3,5.4-1.1l0.7-0.7c1.6-1.6,1.6-4.1,0-5.7l-0.7,0.7l-2.8,2.8c-0.4,0.4-1,0.4-1.4,0  c-0.4-0.4-0.4-1,0-1.4l2.8-2.8l0.7-0.7c-1.6-1.6-4.1-1.6-5.7,0L15,2.3c-1.4,1.4-1.8,3.6-1.1,5.4l-2.6,2.6L1.9,0.9L0,0.4l0.5,1.9  l9.4,9.4l-9,9c-0.8,0.8-0.8,2,0,2.8s2,0.8,2.8,0l8.3-8.3l8.6,8.6c0.8,0.8,2,0.8,2.8,0s0.8-2,0-2.8L14.8,12.4z M15.8,3l0.7-0.7  c0.9-0.9,2.3-1.1,3.4-0.6l-2.7,2.7c-0.8,0.8-0.8,2,0,2.8C18,8,19.2,8,20,7.2l2.7-2.7C23.2,5.7,23,7,22.1,8l-0.7,0.7  c-1.6,1.6-4.1,1.6-5.7,0C14.2,7.1,14.2,4.6,15.8,3z M14.4,8.6c0.2,0.3,0.4,0.5,0.6,0.8c0.2,0.2,0.5,0.5,0.8,0.6l-2.4,2.4L12,11  L14.4,8.6z M3,22.8c-0.4,0.4-1,0.4-1.4,0s-0.4-1,0-1.4L3,20l1.4,1.4L3,22.8z M3.7,19.3l6.8-6.8l1.4,1.4l-6.8,6.8L3.7,19.3z   M12.8,14.6l1.4-1.4l6.4,6.4L19.2,21L12.8,14.6z M22.7,23.1c-0.4,0.4-1,0.4-1.4,0l-1.4-1.4l1.4-1.4l1.4,1.4  C23.1,22.1,23.1,22.7,22.7,23.1z"/></svg>